<?xml version="1.0" encoding="UTF-8"?>
<svg width="600" height="400" viewBox="0 0 600 400" fill="none" xmlns="http://www.w3.org/2000/svg">
  <!-- Background -->
  <ellipse cx="300" cy="300" rx="250" ry="100" fill="#d8b4fe" opacity="0.3"/>
  
  <!-- Buildings -->
  <rect x="100" y="150" width="120" height="200" rx="5" fill="#6a4c93" opacity="0.9"/>
  <rect x="240" y="100" width="100" height="250" rx="5" fill="#3f37c9" opacity="0.8"/>
  <rect x="360" y="180" width="140" height="170" rx="5" fill="#7209b7" opacity="0.7"/>
  
  <!-- Windows -->
  <rect x="120" y="170" width="20" height="20" rx="2" fill="white" opacity="0.8"/>
  <rect x="160" y="170" width="20" height="20" rx="2" fill="white" opacity="0.8"/>
  <rect x="120" y="210" width="20" height="20" rx="2" fill="white" opacity="0.8"/>
  <rect x="160" y="210" width="20" height="20" rx="2" fill="white" opacity="0.8"/>
  <rect x="120" y="250" width="20" height="20" rx="2" fill="white" opacity="0.8"/>
  <rect x="160" y="250" width="20" height="20" rx="2" fill="white" opacity="0.8"/>
  <rect x="120" y="290" width="20" height="20" rx="2" fill="white" opacity="0.8"/>
  <rect x="160" y="290" width="20" height="20" rx="2" fill="white" opacity="0.8"/>
  
  <rect x="260" y="120" width="15" height="15" rx="2" fill="white" opacity="0.8"/>
  <rect x="305" y="120" width="15" height="15" rx="2" fill="white" opacity="0.8"/>
  <rect x="260" y="155" width="15" height="15" rx="2" fill="white" opacity="0.8"/>
  <rect x="305" y="155" width="15" height="15" rx="2" fill="white" opacity="0.8"/>
  <rect x="260" y="190" width="15" height="15" rx="2" fill="white" opacity="0.8"/>
  <rect x="305" y="190" width="15" height="15" rx="2" fill="white" opacity="0.8"/>
  <rect x="260" y="225" width="15" height="15" rx="2" fill="white" opacity="0.8"/>
  <rect x="305" y="225" width="15" height="15" rx="2" fill="white" opacity="0.8"/>
  <rect x="260" y="260" width="15" height="15" rx="2" fill="white" opacity="0.8"/>
  <rect x="305" y="260" width="15" height="15" rx="2" fill="white" opacity="0.8"/>
  <rect x="260" y="295" width="15" height="15" rx="2" fill="white" opacity="0.8"/>
  <rect x="305" y="295" width="15" height="15" rx="2" fill="white" opacity="0.8"/>
  
  <rect x="380" y="200" width="20" height="20" rx="2" fill="white" opacity="0.8"/>
  <rect x="420" y="200" width="20" height="20" rx="2" fill="white" opacity="0.8"/>
  <rect x="460" y="200" width="20" height="20" rx="2" fill="white" opacity="0.8"/>
  <rect x="380" y="240" width="20" height="20" rx="2" fill="white" opacity="0.8"/>
  <rect x="420" y="240" width="20" height="20" rx="2" fill="white" opacity="0.8"/>
  <rect x="460" y="240" width="20" height="20" rx="2" fill="white" opacity="0.8"/>
  <rect x="380" y="280" width="20" height="20" rx="2" fill="white" opacity="0.8"/>
  <rect x="420" y="280" width="20" height="20" rx="2" fill="white" opacity="0.8"/>
  <rect x="460" y="280" width="20" height="20" rx="2" fill="white" opacity="0.8"/>
  
  <!-- Coins/Tokens -->
  <circle cx="200" cy="100" r="30" fill="#f4a261" opacity="0.9"/>
  <circle cx="200" cy="100" r="25" fill="#faedcd"/>
  <text x="190" y="105" font-family="Arial" font-size="14" font-weight="bold" fill="#e76f51">$</text>
  
  <circle cx="150" cy="80" r="20" fill="#f4a261" opacity="0.9"/>
  <circle cx="150" cy="80" r="15" fill="#faedcd"/>
  <text x="145" y="85" font-family="Arial" font-size="10" font-weight="bold" fill="#e76f51">$</text>
  
  <circle cx="250" cy="60" r="25" fill="#f4a261" opacity="0.9"/>
  <circle cx="250" cy="60" r="20" fill="#faedcd"/>
  <text x="245" y="65" font-family="Arial" font-size="12" font-weight="bold" fill="#e76f51">$</text>
  
  <!-- Person 1 - Investor -->
  <circle cx="120" cy="350" r="20" fill="#2a9d8f"/>
  <rect x="110" y="375" width="20" height="40" rx="5" fill="#2a9d8f"/>
  <rect x="95" y="385" width="15" height="5" rx="2" fill="#2a9d8f"/>
  <rect x="130" y="385" width="15" height="5" rx="2" fill="#2a9d8f"/>
  <rect x="110" y="415" width="10" height="20" rx="2" fill="#2a9d8f"/>
  <rect x="130" y="415" width="10" height="20" rx="2" fill="#2a9d8f"/>
  
  <!-- Person 2 - Property Owner -->
  <circle cx="480" cy="350" r="20" fill="#e76f51"/>
  <rect x="470" y="375" width="20" height="40" rx="5" fill="#e76f51"/>
  <rect x="455" y="385" width="15" height="5" rx="2" fill="#e76f51"/>
  <rect x="490" y="385" width="15" height="5" rx="2" fill="#e76f51"/>
  <rect x="470" y="415" width="10" height="20" rx="2" fill="#e76f51"/>
  <rect x="490" y="415" width="10" height="20" rx="2" fill="#e76f51"/>
  
  <!-- Connection Lines -->
  <path d="M140 350 Q 300 280 460 350" stroke="#6a4c93" stroke-width="3" stroke-dasharray="5,5"/>
  
  <!-- Platform Icon -->
  <rect x="280" y="330" width="40" height="40" rx="8" fill="#6a4c93"/>
  <path d="M290 350 L 310 350 M 300 340 L 300 360" stroke="white" stroke-width="3"/>
  
  <!-- Digital Elements -->
  <rect x="350" y="80" width="100" height="60" rx="10" fill="white" stroke="#6a4c93" stroke-width="2"/>
  <rect x="360" y="90" width="80" height="10" rx="2" fill="#d8b4fe"/>
  <rect x="360" y="110" width="40" height="10" rx="2" fill="#6a4c93"/>
  <rect x="360" y="130" width="80" height="4" rx="1" fill="#e2e8f0"/>
  
  <!-- Flying Tokens -->
  <g transform="translate(380, 40)">
    <circle cx="0" cy="0" r="15" fill="#f4a261" opacity="0.9"/>
    <circle cx="0" cy="0" r="12" fill="#faedcd"/>
    <text x="-5" y="5" font-family="Arial" font-size="10" font-weight="bold" fill="#e76f51">$</text>
  </g>
  <g transform="translate(420, 70)">
    <circle cx="0" cy="0" r="10" fill="#f4a261" opacity="0.9"/>
    <circle cx="0" cy="0" r="7" fill="#faedcd"/>
    <text x="-3" y="3" font-family="Arial" font-size="6" font-weight="bold" fill="#e76f51">$</text>
  </g>
  <g transform="translate(450, 40)">
    <circle cx="0" cy="0" r="12" fill="#f4a261" opacity="0.9"/>
    <circle cx="0" cy="0" r="9" fill="#faedcd"/>
    <text x="-4" y="4" font-family="Arial" font-size="8" font-weight="bold" fill="#e76f51">$</text>
  </g>
</svg>
